<svg width="214" height="171" viewBox="0 0 214 171" fill="none" xmlns="http://www.w3.org/2000/svg">
<path d="M195.835 146.504C216.011 124.616 213.979 96.5081 213.915 96.1875V10.6875C213.915 7.853 212.789 5.13459 210.783 3.1303C208.778 1.126 206.059 0 203.223 0H139.071C127.278 0 117.687 9.58669 117.687 21.375V96.1875C117.687 99.022 118.813 101.74 120.819 103.745C122.824 105.749 125.543 106.875 128.379 106.875H161.289C161.058 112.158 159.479 117.294 156.702 121.795C151.271 130.355 141.038 136.202 126.273 139.151L117.687 140.861V171H128.379C158.135 171 180.834 162.76 195.835 146.504ZM78.1479 146.504C98.3344 124.616 96.2923 96.5081 96.2281 96.1875V10.6875C96.2281 7.853 95.1016 5.13459 93.0965 3.1303C91.0913 1.126 88.3718 0 85.5361 0H21.384C9.59073 0 0 9.58669 0 21.375V96.1875C0 99.022 1.12648 101.74 3.13162 103.745C5.13676 105.749 7.85631 106.875 10.692 106.875H43.602C43.3714 112.158 41.7924 117.294 39.0152 121.795C33.5836 130.355 23.3514 136.202 8.58569 139.151L0 140.861V171H10.692C40.4479 171 63.147 162.76 78.1479 146.504Z" fill="#F9D972" fill-opacity="0.5"/>
</svg>
