<?xml version="1.0" encoding="UTF-8"?>
<!DOCTYPE svg PUBLIC "-//W3C//DTD SVG 1.1//EN" "http://www.w3.org/Graphics/SVG/1.1/DTD/svg11.dtd">
<!-- Creator: CorelDRAW X7 -->
<svg xmlns="http://www.w3.org/2000/svg" xml:space="preserve" width="210mm" height="297mm" version="1.1" shape-rendering="geometricPrecision" text-rendering="geometricPrecision" image-rendering="optimizeQuality" fill-rule="evenodd" clip-rule="evenodd"
viewBox="0 0 21000 29700"
 xmlns:xlink="http://www.w3.org/1999/xlink">
 <g id="Layer_x0020_1">
  <metadata id="CorelCorpID_0Corel-Layer"/>
  <g id="_2297843568064">
   <path fill="#434242" fill-rule="nonzero" d="M6860 17248l-1253 0 0 251 503 0 0 252 -252 0 0 251 -251 0 0 -503 -252 0 0 3011 252 0 0 251 1253 0 0 -251 251 0 0 -3011 -251 0 0 -251zm4011 251l0 -251 -748 0 0 251 -256 0 0 252 -247 0 0 251 -504 0 0 -251 -251 0 0 -252 -252 0 0 -251 -750 0 0 251 503 0 0 252 -251 0 0 251 -252 0 0 -503 -251 0 0 751 251 0 0 255 252 0 0 248 251 0 0 503 -251 0 0 251 -252 0 0 252 -251 0 0 751 251 0 0 251 750 0 0 -251 252 0 0 -251 251 0 0 -251 504 0 0 251 247 0 0 251 256 0 0 251 748 0 0 -251 251 0 0 -751 -251 0 0 -252 -250 0 0 -251 -251 0 0 -503 251 0 0 -248 250 0 0 -255 251 0 0 -751 -251 0zm7774 2258l-1253 0 0 -2258 -251 0 0 -251 -1253 0 0 251 503 0 0 252 -252 0 0 251 -251 0 0 -503 -252 0 0 3011 252 0 0 251 2757 0 0 -251 251 0 0 -502 -251 0 0 -251zm-3761 -2509l-3009 0 0 251 503 0 0 252 -251 0 0 251 -252 0 0 -503 -251 0 0 3011 251 0 0 251 3009 0 0 -251 251 0 0 -500 -251 0 0 -251 -1504 0 0 -503 1504 0 0 -248 251 0 0 -255 -251 0 0 -248 -1504 0 0 -503 1504 0 0 -251 251 0 0 -252 -251 0 0 -251z"/>
   <g>
    <path fill="#066038" fill-rule="nonzero" d="M14083 24158c-274,274 -605,411 -992,411 -387,0 -718,-137 -992,-411 -274,-275 -411,-605 -411,-992 0,-387 137,-718 411,-992 274,-274 605,-411 992,-411 217,0 425,48 625,145l0 -924 778 0 0 2182c0,387 -137,717 -411,992zm-1434 -550c122,122 269,182 442,182 173,0 320,-60 442,-182 122,-122 183,-269 183,-442 0,-173 -61,-320 -183,-442 -122,-122 -269,-183 -442,-183 -173,0 -320,61 -442,183 -122,122 -182,269 -182,442 0,173 60,320 182,442z"/>
    <path fill="#066038" fill-rule="nonzero" d="M6557 22177c274,-274 604,-411 991,-411 387,0 718,137 992,411 274,274 411,605 411,992l0 1403 -778 0 0 -150c-194,100 -402,150 -625,150 -387,0 -717,-138 -991,-412 -275,-274 -412,-604 -412,-991 0,-387 137,-718 412,-992zm1433 550c-121,-122 -269,-183 -442,-183 -173,0 -320,61 -442,183 -121,121 -182,269 -182,442 0,170 61,316 182,437 122,122 269,183 442,183 173,0 321,-61 442,-183 122,-121 183,-267 183,-437 0,-173 -61,-321 -183,-442z"/>
    <g>
     <path fill="#066038" d="M10293 23505c123,-21 196,38 240,106 142,216 -79,590 202,847 133,121 346,163 528,52 194,-119 220,-278 220,-480 0,-486 54,-847 -189,-1213 -428,-644 -1387,-679 -1862,-64 -271,351 -232,667 -232,1170 0,277 -5,394 158,542 135,122 359,144 530,40 442,-271 -11,-929 405,-1000z"/>
     <g>
      <path fill="#066038" d="M11228 22161c184,-23 312,-206 286,-407 -26,-201 -196,-345 -379,-321 -184,23 -312,206 -286,407 26,201 196,345 379,321z"/>
      <path fill="#066038" d="M9603 22148c184,-23 312,-206 286,-407 -26,-201 -196,-345 -380,-321 -183,23 -311,206 -285,407 25,201 195,345 379,321z"/>
      <path fill="#FEFEFE" d="M9481 22140c-53,36 34,519 76,575 64,86 395,292 511,398 49,45 183,187 241,197 59,10 242,-10 284,-57 127,-143 233,-278 425,-333 57,-16 160,-148 185,-201 58,-121 144,-395 88,-522 -50,-114 -230,-359 -320,-448 -90,-89 -178,-149 -303,-178 -246,-48 -672,-36 -868,139 -105,102 -210,280 -299,402l-14 19 -6 9z"/>
      <path fill="#066038" d="M10414 23089c425,-192 -168,-221 -175,-99 -1,21 114,108 175,99z"/>
      <path fill="#066038" d="M9874 22739c82,41 197,-23 258,-144 60,-121 42,-252 -40,-294 -82,-41 -198,24 -258,145 -60,121 -43,252 40,293z"/>
      <path fill="#066038" d="M10920 22752c-85,36 -196,-36 -248,-161 -53,-124 -27,-254 58,-290 84,-36 196,36 248,161 53,124 27,254 -58,290z"/>
     </g>
    </g>
    <path fill="#066038" fill-rule="nonzero" d="M15038 22176c274,-275 604,-412 991,-412 387,0 718,137 992,412 274,274 411,604 411,991l0 1403 -778 0 0 -149c-194,99 -402,149 -625,149 -387,0 -717,-137 -991,-411 -274,-274 -412,-605 -412,-992 0,-387 138,-717 412,-991zm1433 549c-121,-121 -269,-182 -442,-182 -173,0 -320,61 -442,182 -121,122 -182,269 -182,442 0,170 61,316 182,438 122,122 269,182 442,182 173,0 321,-60 442,-182 122,-122 183,-268 183,-438 0,-173 -61,-320 -183,-442z"/>
   </g>
   <g>
    <path fill="#2B2A29" d="M8599 7648c5582,-1540 5747,3927 4103,5529 -1480,1441 -4114,1035 -4626,1816 -1222,1864 1415,2291 3882,1493 6519,-2109 5363,-10131 533,-10854 -1903,-285 -3744,737 -4310,1921l-312 543 730 -448z"/>
    <path fill="#2B2A29" d="M4940 19255c0,-8146 -1210,-12901 6047,-14429 -3215,-1027 -7056,520 -8292,4421 -311,982 -506,8450 -337,11703l0 2348c0,702 574,1276 1277,1276 702,0 1276,-574 1276,-1276l0 -1436c99,-793 29,-2053 29,-2607z"/>
   </g>
  </g>
 </g>
</svg>
