<svg width="84" height="68" viewBox="0 0 84 68" fill="none" xmlns="http://www.w3.org/2000/svg">
<path d="M7.37913 10.2168C-0.483376 18.7502 0.308296 29.7085 0.333298 29.8335V63.1668C0.333298 64.2719 0.772278 65.3317 1.55368 66.1131C2.33508 66.8945 3.39489 67.3335 4.49996 67.3335H29.5C34.0958 67.3335 37.8333 63.596 37.8333 59.0002V29.8335C37.8333 28.7284 37.3943 27.6686 36.6129 26.8872C35.8315 26.1058 34.7717 25.6668 33.6666 25.6668H20.8416C20.9315 23.6072 21.5468 21.6048 22.6291 19.8502C24.7458 16.5127 28.7333 14.2335 34.4875 13.0835L37.8333 12.4168V0.666832H33.6666C22.0708 0.666832 13.225 3.87933 7.37913 10.2168ZM53.2416 10.2168C45.375 18.7502 46.1708 29.7085 46.1958 29.8335V63.1668C46.1958 64.2719 46.6348 65.3317 47.4162 66.1131C48.1976 66.8945 49.2574 67.3335 50.3625 67.3335H75.3625C79.9583 67.3335 83.6958 63.596 83.6958 59.0002V29.8335C83.6958 28.7284 83.2568 27.6686 82.4754 26.8872C81.694 26.1058 80.6342 25.6668 79.5291 25.6668H66.7041C66.794 23.6072 67.4094 21.6048 68.4916 19.8502C70.6083 16.5127 74.5958 14.2335 80.35 13.0835L83.6958 12.4168V0.666832H79.5291C67.9333 0.666832 59.0875 3.87933 53.2416 10.2168Z" fill="#F9D972"/>
</svg>
